<?xml version="1.0" encoding="utf-8"?>
<!-- Generator: Adobe Illustrator 16.0.0, SVG Export Plug-In . SVG Version: 6.00 Build 0)  -->
<!DOCTYPE svg PUBLIC "-//W3C//DTD SVG 1.1//EN" "http://www.w3.org/Graphics/SVG/1.1/DTD/svg11.dtd">
<svg version="1.1" id="Layer_1" xmlns="http://www.w3.org/2000/svg" xmlns:xlink="http://www.w3.org/1999/xlink" x="0px" y="0px"
	 width="100px" height="100px" viewBox="0 0 100 100" enable-background="new 0 0 100 100" xml:space="preserve">
<g>
	
		<rect x="27.5" y="76.5" fill="none" stroke="#ADA074" stroke-width="2" stroke-linecap="round" stroke-miterlimit="10" width="22.5" height="22.5"/>
	
		<rect x="5" y="76.5" fill="none" stroke="#ADA074" stroke-width="2" stroke-linecap="round" stroke-miterlimit="10" width="22.5" height="22.5"/>
	
		<rect x="50" y="76.5" fill="none" stroke="#ADA074" stroke-width="2" stroke-linecap="round" stroke-miterlimit="10" width="22.5" height="22.5"/>
	
		<rect x="72.5" y="76.5" fill="none" stroke="#ADA074" stroke-width="2" stroke-linecap="round" stroke-miterlimit="10" width="22.5" height="22.5"/>
	
		<rect x="5" y="54" fill="none" stroke="#ADA074" stroke-width="2" stroke-linecap="round" stroke-miterlimit="10" width="22.5" height="22.5"/>
	
		<rect x="27.5" y="54" fill="none" stroke="#ADA074" stroke-width="2" stroke-linecap="round" stroke-miterlimit="10" width="22.5" height="22.5"/>
	
		<rect x="50" y="54" fill="none" stroke="#ADA074" stroke-width="2" stroke-linecap="round" stroke-miterlimit="10" width="22.5" height="22.5"/>
	
		<rect x="5" y="31.501" fill="none" stroke="#ADA074" stroke-width="2" stroke-linecap="round" stroke-miterlimit="10" width="22.5" height="22.499"/>
	
		<rect x="27.5" y="31.501" fill="none" stroke="#ADA074" stroke-width="2" stroke-linecap="round" stroke-miterlimit="10" width="22.5" height="22.499"/>
	
		<rect x="5" y="9.001" fill="none" stroke="#ADA074" stroke-width="2" stroke-linecap="round" stroke-miterlimit="10" width="22.5" height="22.5"/>
	
		<rect x="14.643" y="39.536" fill="none" stroke="#ADA074" stroke-width="2" stroke-linecap="round" stroke-miterlimit="10" width="4.822" height="14.464"/>
	
		<rect x="9.821" y="39.536" fill="none" stroke="#ADA074" stroke-width="2" stroke-linecap="round" stroke-miterlimit="10" width="4.821" height="14.464"/>
	
		<rect x="5" y="39.536" fill="none" stroke="#ADA074" stroke-width="2" stroke-linecap="round" stroke-miterlimit="10" width="4.821" height="14.464"/>
	<path fill="none" stroke="#ADA074" stroke-width="2" stroke-linecap="round" stroke-miterlimit="10" d="M64.143,44.357
		L64.143,44.357h-5.785c-0.455,1.815-1.551,3.357-2.926,4.628c-0.703,0.65-1.084,1.645-0.873,2.707
		C54.831,53.062,56.119,54,57.52,54h7.461c1.4,0,2.69-0.938,2.963-2.309c0.209-1.062-0.172-2.057-0.875-2.707
		C65.693,47.715,64.598,46.173,64.143,44.357z"/>
	
		<line fill="none" stroke="#ADA074" stroke-width="2" stroke-linecap="round" stroke-miterlimit="10" x1="61.25" y1="44.357" x2="61.25" y2="31.501"/>
	<path fill="none" stroke="#ADA074" stroke-width="2" stroke-linecap="round" stroke-miterlimit="10" d="M61.25,20.251h-4.82v6.428
		c0,2.652,2.17,4.822,4.82,4.822V20.251z"/>
	
		<line fill="none" stroke="#ADA074" stroke-width="2" stroke-linecap="round" stroke-miterlimit="10" x1="61.25" y1="41.144" x2="66.07" y2="36.321"/>
	<path fill="none" stroke="#ADA074" stroke-width="2" stroke-linecap="round" stroke-miterlimit="10" d="M61.25,25.071h4.82v1.607
		c0,2.652-2.17,4.822-4.82,4.822V25.071z"/>
	
		<rect x="78.93" y="57.214" fill="none" stroke="#ADA074" stroke-width="2" stroke-linecap="round" stroke-miterlimit="10" width="6.428" height="19.286"/>
	
		<rect x="72.5" y="60.43" fill="none" stroke="#ADA074" stroke-width="2" stroke-linecap="round" stroke-miterlimit="10" width="6.43" height="16.07"/>
	
		<rect x="85.357" y="60.43" fill="none" stroke="#ADA074" stroke-width="2" stroke-linecap="round" stroke-miterlimit="10" width="6.428" height="16.07"/>
	
		<rect x="32.321" y="89.355" fill="none" stroke="#ADA074" stroke-width="2" stroke-linecap="round" stroke-miterlimit="10" width="12.857" height="4.822"/>
	
		<rect x="32.321" y="84.535" fill="none" stroke="#ADA074" stroke-width="2" stroke-linecap="round" stroke-miterlimit="10" width="12.857" height="4.82"/>
	
		<rect x="32.321" y="94.18" fill="none" stroke="#ADA074" stroke-width="2" stroke-linecap="round" stroke-miterlimit="10" width="12.857" height="4.82"/>
	
		<rect x="32.321" y="20.251" fill="none" stroke="#ADA074" stroke-width="2" stroke-linecap="round" stroke-miterlimit="10" width="8.036" height="11.25"/>
	<path fill="none" stroke="#ADA074" stroke-width="2" stroke-linecap="round" stroke-miterlimit="10" d="M40.357,28.286h3.214
		c1.775,0,3.214-1.439,3.214-3.215c0-1.773-1.438-3.214-3.214-3.214h-3.214"/>
	<path fill="none" stroke="#ADA074" stroke-width="2" stroke-linecap="round" stroke-miterlimit="10" d="M36.895,9.862
		c1.938,0.803,1.938,2.104,0,2.908c-1.938,0.803-1.938,2.104,0,2.906"/>
</g>
</svg>
