<svg xmlns="http://www.w3.org/2000/svg" width="100" height="100" viewBox="0 0 100 100"><g stroke="#444" stroke-width="2" stroke-linecap="round" stroke-miterlimit="10" fill="none"><path d="M27.5 76.5h22.5v22.5h-22.5v-22.5zm-22.5 0h22.5v22.5h-22.5v-22.5zm45 0h22.5v22.5h-22.5v-22.5zm22.5 0h22.5v22.5h-22.5v-22.5zm-67.5-22.5h22.5v22.5h-22.5v-22.5zm22.5 0h22.5v22.5h-22.5v-22.5zm22.5 0h22.5v22.5h-22.5v-22.5zm-45-22.499h22.5v22.499h-22.5v-22.499zm22.5 0h22.5v22.499h-22.5v-22.499zm-22.5-22.5h22.5v22.5h-22.5v-22.5zm9.643 30.535h4.822v14.464h-4.822v-14.464zm-4.822 0h4.821v14.464h-4.821v-14.464zm-4.821 0h4.821v14.464h-4.821v-14.464zm59.143 4.821h-5.785c-.455 1.815-1.551 3.357-2.926 4.628-.703.65-1.084 1.645-.873 2.707.272 1.37 1.56 2.308 2.961 2.308h7.461c1.4 0 2.69-.938 2.963-2.309.209-1.062-.172-2.059-.875-2.708-1.376-1.268-2.471-2.81-2.926-4.626zm-2.893 0v-12.856M61.25 20.251h-4.82v6.428c0 2.652 2.17 4.822 4.82 4.822v-11.25zm0 20.893l4.82-4.823M61.25 25.071h4.82v1.607c0 2.652-2.17 4.822-4.82 4.822v-6.429zm17.68 32.143h6.428v19.286h-6.428v-19.286zm-6.43 3.216h6.43v16.07h-6.43v-16.07zm12.857 0h6.428v16.07h-6.428v-16.07zm-53.036 28.925h12.857v4.82h-12.857v-4.82zm0-4.82h12.857v4.82h-12.857v-4.82zm0 9.645h12.857v4.82h-12.857v-4.82zm0-73.929h8.036v11.25h-8.036v-11.25zm8.036 8.035h3.214c1.775 0 3.214-1.439 3.214-3.215 0-1.773-1.438-3.214-3.214-3.214h-3.214m-3.462-11.995c1.938.803 1.938 2.104 0 2.908-1.938.803-1.938 2.104 0 2.906"/></g></svg>