<svg xmlns="http://www.w3.org/2000/svg" width="100" height="100" viewBox="0 0 100 100"><g stroke="#444" stroke-width="2" stroke-miterlimit="10" fill="none"><path stroke-linecap="round" stroke-linejoin="round" d="M87.241 99h4.655v-7.759h-7.758l3.103 7.759zm-74.482 0h-4.655v-7.759h7.758l-3.103 7.759z"/><path d="M5 47.793h90v43.448h-90v-43.448zm46.552 21.725h43.448v21.727h-43.448v-21.727zm0-21.725h43.448v21.723h-43.448v-21.723zm-46.552 0h15.517v43.448h-15.517v-43.448zm15.517 0h15.518v43.448h-15.518v-43.448zm15.518 0h15.517v43.448h-15.517v-43.448z"/><path stroke-linecap="round" d="M70.173 58.654h6.207m-31.035-4.654v6.206m-15.517-6.206v6.206m-15.518-6.206v6.206m55.863 20.173h6.207M14.348 24.518c-.985 2.472-1.589 5.729-1.589 9.311 0 7.712 2.779 13.965 6.207 13.965s6.207-6.253 6.207-13.965c0-3.581-.604-6.839-1.59-9.311h-9.235zm18.583 17.069h18.621v6.207h-18.621v-6.207zm3.104-6.207h18.621v6.207h-18.621v-6.207zm-3.104-6.207h18.621v6.207h-18.621v-6.207zm-13.966-4.655c0-5.145 4.165-9.31 9.311-9.31m-9.311 9.31c0-5.145-4.164-9.31-9.31-9.31m9.31 9.31v-12.414M90.346 41.587h-21.726c1.716 0 6.207 1.391 6.207 3.104v3.103h9.312v-3.104c0-1.712 4.491-3.103 6.207-3.103zm-23.278 0h24.828"/></g></svg>