<?xml version="1.0" encoding="utf-8"?>
<!-- Generator: Adobe Illustrator 16.0.0, SVG Export Plug-In . SVG Version: 6.00 Build 0)  -->
<!DOCTYPE svg PUBLIC "-//W3C//DTD SVG 1.1//EN" "http://www.w3.org/Graphics/SVG/1.1/DTD/svg11.dtd">
<svg version="1.1" id="Layer_1" xmlns="http://www.w3.org/2000/svg" xmlns:xlink="http://www.w3.org/1999/xlink" x="0px" y="0px"
	 width="100px" height="100px" viewBox="0 0 100 100" enable-background="new 0 0 100 100" xml:space="preserve">
<g>
	
		<polygon fill="none" stroke="#ADA074" stroke-width="2" stroke-linecap="round" stroke-linejoin="round" stroke-miterlimit="10" points="
		87.241,99 91.896,99 91.896,91.241 84.139,91.241 	"/>
	
		<polygon fill="none" stroke="#ADA074" stroke-width="2" stroke-linecap="round" stroke-linejoin="round" stroke-miterlimit="10" points="
		12.759,99 8.104,99 8.104,91.241 15.862,91.241 	"/>
	<rect x="5" y="47.793" fill="none" stroke="#ADA074" stroke-width="2" stroke-miterlimit="10" width="90" height="43.448"/>
	
		<rect x="51.552" y="69.518" fill="none" stroke="#ADA074" stroke-width="2" stroke-miterlimit="10" width="43.448" height="21.725"/>
	
		<rect x="51.552" y="47.793" fill="none" stroke="#ADA074" stroke-width="2" stroke-miterlimit="10" width="43.448" height="21.723"/>
	<rect x="5" y="47.793" fill="none" stroke="#ADA074" stroke-width="2" stroke-miterlimit="10" width="15.517" height="43.448"/>
	
		<rect x="20.517" y="47.793" fill="none" stroke="#ADA074" stroke-width="2" stroke-miterlimit="10" width="15.518" height="43.448"/>
	
		<rect x="36.035" y="47.793" fill="none" stroke="#ADA074" stroke-width="2" stroke-miterlimit="10" width="15.517" height="43.448"/>
	
		<line fill="none" stroke="#ADA074" stroke-width="2" stroke-linecap="round" stroke-miterlimit="10" x1="70.173" y1="58.654" x2="76.38" y2="58.654"/>
	
		<line fill="none" stroke="#ADA074" stroke-width="2" stroke-linecap="round" stroke-miterlimit="10" x1="45.345" y1="54" x2="45.345" y2="60.206"/>
	
		<line fill="none" stroke="#ADA074" stroke-width="2" stroke-linecap="round" stroke-miterlimit="10" x1="29.828" y1="54" x2="29.828" y2="60.206"/>
	
		<line fill="none" stroke="#ADA074" stroke-width="2" stroke-linecap="round" stroke-miterlimit="10" x1="14.31" y1="54" x2="14.31" y2="60.206"/>
	
		<line fill="none" stroke="#ADA074" stroke-width="2" stroke-linecap="round" stroke-miterlimit="10" x1="70.173" y1="80.379" x2="76.38" y2="80.379"/>
	<path fill="none" stroke="#ADA074" stroke-width="2" stroke-linecap="round" stroke-miterlimit="10" d="M14.348,24.518
		c-0.985,2.472-1.589,5.729-1.589,9.311c0,7.712,2.779,13.965,6.207,13.965c3.428,0,6.207-6.253,6.207-13.965
		c0-3.581-0.604-6.839-1.59-9.311H14.348z"/>
	
		<rect x="32.931" y="41.587" fill="none" stroke="#ADA074" stroke-width="2" stroke-linecap="round" stroke-miterlimit="10" width="18.621" height="6.207"/>
	
		<rect x="36.035" y="35.38" fill="none" stroke="#ADA074" stroke-width="2" stroke-linecap="round" stroke-miterlimit="10" width="18.621" height="6.207"/>
	
		<rect x="32.931" y="29.173" fill="none" stroke="#ADA074" stroke-width="2" stroke-linecap="round" stroke-miterlimit="10" width="18.621" height="6.207"/>
	<path fill="none" stroke="#ADA074" stroke-width="2" stroke-linecap="round" stroke-miterlimit="10" d="M18.965,24.518
		c0-5.145,4.165-9.31,9.311-9.31"/>
	<path fill="none" stroke="#ADA074" stroke-width="2" stroke-linecap="round" stroke-miterlimit="10" d="M18.965,24.518
		c0-5.145-4.164-9.31-9.31-9.31"/>
	
		<line fill="none" stroke="#ADA074" stroke-width="2" stroke-linecap="round" stroke-miterlimit="10" x1="18.965" y1="24.518" x2="18.965" y2="12.104"/>
	<path fill="none" stroke="#ADA074" stroke-width="2" stroke-linecap="round" stroke-miterlimit="10" d="M90.346,41.587H68.62
		c1.716,0,6.207,1.391,6.207,3.104v3.103h9.312V44.69C84.139,42.978,88.63,41.587,90.346,41.587z"/>
	
		<line fill="none" stroke="#ADA074" stroke-width="2" stroke-linecap="round" stroke-miterlimit="10" x1="67.068" y1="41.587" x2="91.896" y2="41.587"/>
</g>
</svg>
