<?xml version="1.0" encoding="utf-8"?>
<!-- Generator: Adobe Illustrator 16.0.0, SVG Export Plug-In . SVG Version: 6.00 Build 0)  -->
<!DOCTYPE svg PUBLIC "-//W3C//DTD SVG 1.1//EN" "http://www.w3.org/Graphics/SVG/1.1/DTD/svg11.dtd">
<svg version="1.1" id="Layer_1" xmlns="http://www.w3.org/2000/svg" xmlns:xlink="http://www.w3.org/1999/xlink" x="0px" y="0px"
	 width="60px" height="60px" viewBox="0 0 60 60" enable-background="new 0 0 60 60" xml:space="preserve">
<path fill="#FFFFFF" d="M51.055,30.858h-6.836v24.804H33.983V30.858h-5.117v-8.554h5.117v-5.117c0-3.672,0.86-6.445,2.578-8.32
	c1.719-1.875,4.558-2.812,8.517-2.812h6.835v8.555h-4.296c-1.458,0-2.39,0.254-2.793,0.762c-0.404,0.508-0.605,1.4-0.605,2.676
	v4.258h7.734L51.055,30.858z M56.698,3.3C54.499,1.1,51.849,0,48.75,0h-37.5C8.151,0,5.501,1.1,3.301,3.3C1.1,5.501,0,8.151,0,11.25
	v37.499c0,3.1,1.1,5.75,3.301,7.949C5.501,58.898,8.151,60,11.25,60h37.5c3.099,0,5.748-1.102,7.948-3.303
	c2.2-2.199,3.301-4.85,3.301-7.949V11.25C59.999,8.151,58.898,5.5,56.698,3.3z"/>
</svg>
