<?xml version="1.0" encoding="utf-8"?>
<!-- Generator: Adobe Illustrator 16.0.0, SVG Export Plug-In . SVG Version: 6.00 Build 0)  -->
<!DOCTYPE svg PUBLIC "-//W3C//DTD SVG 1.1//EN" "http://www.w3.org/Graphics/SVG/1.1/DTD/svg11.dtd">
<svg version="1.1" id="Layer_1" xmlns="http://www.w3.org/2000/svg" xmlns:xlink="http://www.w3.org/1999/xlink" x="0px" y="0px"
	 width="50px" height="50px" viewBox="-5 -5 50 50" enable-background="new -5 -5 50 50" xml:space="preserve">
<path fill="#FFFFFF" d="M37.629,20.797h-5.697v20.671h-8.53V20.797h-4.263V13.67h4.263V9.405c0-3.06,0.717-5.37,2.148-6.933
	c1.434-1.562,3.799-2.344,7.099-2.344h5.696v7.129h-3.58c-1.215,0-1.993,0.212-2.327,0.634c-0.338,0.423-0.504,1.167-0.504,2.23
	v3.549h6.445L37.629,20.797z M42.332-2.167c-1.833-1.834-4.041-2.75-6.624-2.75H4.458c-2.583,0-4.792,0.916-6.625,2.75
	c-1.834,1.835-2.75,4.043-2.75,6.625v31.249c0,2.584,0.916,4.793,2.75,6.625c1.834,1.834,4.043,2.752,6.625,2.752h31.25
	c2.583,0,4.791-0.918,6.624-2.753c1.834-1.832,2.75-4.04,2.75-6.624V4.458C45.082,1.875,44.166-0.333,42.332-2.167z"/>
</svg>
