<?xml version="1.0" encoding="utf-8"?>
<!-- Generator: Adobe Illustrator 16.0.0, SVG Export Plug-In . SVG Version: 6.00 Build 0)  -->
<!DOCTYPE svg PUBLIC "-//W3C//DTD SVG 1.1//EN" "http://www.w3.org/Graphics/SVG/1.1/DTD/svg11.dtd">
<svg version="1.1" id="Layer_1" xmlns="http://www.w3.org/2000/svg" xmlns:xlink="http://www.w3.org/1999/xlink" x="0px" y="0px"
	 width="50px" height="50px" viewBox="-5 -5 50 50" enable-background="new -5 -5 50 50" xml:space="preserve">
<path fill="#FFFFFF" d="M39.336,8.183c0,0.63-0.216,1.163-0.65,1.595c-0.434,0.433-0.965,0.651-1.596,0.651h-5.664
	c-0.627,0-1.16-0.216-1.594-0.651S29.18,8.813,29.18,8.183v-5.37c0-0.607,0.221-1.134,0.652-1.579
	c0.434-0.445,0.967-0.667,1.594-0.667h5.664c0.631,0,1.162,0.222,1.596,0.667c0.436,0.445,0.65,0.972,0.65,1.579V8.183z
	 M39.336,37.252c0,0.564-0.195,1.038-0.586,1.418c-0.391,0.379-0.859,0.568-1.4,0.568H2.553c-0.565,0-1.038-0.189-1.415-0.568
	c-0.38-0.38-0.57-0.854-0.57-1.418V16.158h4.589c-0.434,1.369-0.651,2.787-0.651,4.264c0,4.167,1.519,7.723,4.558,10.661
	c3.04,2.942,6.694,4.41,10.969,4.41c2.82,0,5.427-0.671,7.812-2.019c2.389-1.346,4.274-3.174,5.663-5.484
	c1.39-2.312,2.087-4.834,2.087-7.569c0-1.476-0.222-2.896-0.652-4.264h4.395v21.095H39.336L39.336,37.252z M12.954,13.018
	c1.963-1.898,4.321-2.849,7.077-2.849c2.779,0,5.152,0.95,7.113,2.849c1.965,1.899,2.946,4.194,2.946,6.885
	c0,2.691-0.981,4.986-2.946,6.886c-1.961,1.897-4.334,2.847-7.113,2.847c-2.756,0-5.114-0.949-7.077-2.847
	c-1.964-1.899-2.947-4.194-2.947-6.886C10.006,17.212,10.99,14.917,12.954,13.018z M43.109-3.111C41.854-4.371,40.344-5,38.589-5
	H1.412c-1.757,0-3.265,0.629-4.525,1.889C-4.371-1.854-5-0.345-5,1.412v37.176c0,1.756,0.629,3.266,1.889,4.523
	C-1.853,44.37-0.344,45,1.412,45h37.176c1.756,0,3.266-0.63,4.521-1.889C44.371,41.854,45,40.343,45,38.588V1.412
	C45-0.345,44.37-1.853,43.109-3.111z"/>
</svg>
