<?xml version="1.0" encoding="utf-8"?>
<!-- Generator: Adobe Illustrator 16.0.0, SVG Export Plug-In . SVG Version: 6.00 Build 0)  -->
<!DOCTYPE svg PUBLIC "-//W3C//DTD SVG 1.1//EN" "http://www.w3.org/Graphics/SVG/1.1/DTD/svg11.dtd">
<svg version="1.1" id="Layer_1" xmlns="http://www.w3.org/2000/svg" xmlns:xlink="http://www.w3.org/1999/xlink" x="0px" y="0px"
	 width="60px" height="60px" viewBox="0 0 60 60" enable-background="new 0 0 60 60" xml:space="preserve">
<path fill="#FFFFFF" d="M53.203,15.82c0,0.756-0.26,1.394-0.781,1.914c-0.52,0.521-1.158,0.781-1.914,0.781h-6.797
	c-0.754,0-1.393-0.26-1.914-0.781c-0.52-0.521-0.781-1.158-0.781-1.914V9.375c0-0.729,0.262-1.36,0.781-1.895
	c0.521-0.534,1.16-0.801,1.914-0.801h6.797c0.756,0,1.395,0.267,1.914,0.801c0.521,0.534,0.781,1.166,0.781,1.895V15.82z
	 M53.203,50.703c0,0.678-0.234,1.244-0.703,1.699s-1.029,0.684-1.68,0.684H9.063c-0.677,0-1.244-0.229-1.699-0.684
	c-0.456-0.455-0.684-1.021-0.684-1.699V25.391h5.507c-0.521,1.641-0.781,3.346-0.781,5.116c0,5,1.823,9.266,5.469,12.793
	c3.646,3.529,8.034,5.293,13.164,5.293c3.384,0,6.511-0.807,9.376-2.422s5.129-3.809,6.797-6.582c1.666-2.773,2.5-5.801,2.5-9.083
	c0-1.771-0.262-3.476-0.781-5.116h5.273v25.312H53.203z M21.544,21.621c2.355-2.278,5.188-3.418,8.495-3.418
	c3.333,0,6.179,1.14,8.535,3.418c2.357,2.279,3.535,5.033,3.535,8.263c0,3.228-1.178,5.982-3.535,8.261
	c-2.355,2.277-5.201,3.418-8.535,3.418c-3.308,0-6.139-1.141-8.495-3.418c-2.357-2.279-3.536-5.033-3.536-8.261
	C18.008,26.654,19.187,23.9,21.544,21.621z M57.734,2.266C56.225,0.755,54.414,0,52.307,0H7.696c-2.109,0-3.919,0.755-5.43,2.266
	C0.755,3.776,0,5.586,0,7.695v44.609c0,2.109,0.755,3.92,2.266,5.43S5.587,60,7.696,60h44.609c2.109,0,3.92-0.756,5.43-2.266
	S60,54.414,60,52.305V7.695C60,5.586,59.244,3.777,57.734,2.266z"/>
</svg>
