<?xml version="1.0" encoding="utf-8"?>
<!-- Generator: Adobe Illustrator 16.0.0, SVG Export Plug-In . SVG Version: 6.00 Build 0)  -->
<!DOCTYPE svg PUBLIC "-//W3C//DTD SVG 1.1//EN" "http://www.w3.org/Graphics/SVG/1.1/DTD/svg11.dtd">
<svg version="1.1" id="Layer_1" xmlns="http://www.w3.org/2000/svg" xmlns:xlink="http://www.w3.org/1999/xlink" x="0px" y="0px"
	 width="50px" height="50px" viewBox="-5 -5 50 50" enable-background="new -5 -5 50 50" xml:space="preserve">
<path fill="#FFFFFF" d="M41.648,7.45c-2.236-3.83-5.27-6.862-9.099-9.099C28.721-3.882,24.537-5,20-5
	c-4.535,0-8.721,1.118-12.55,3.353C3.62,0.589,0.588,3.62-1.648,7.451C-3.882,11.281-5,15.465-5,20c0,5.054,1.379,9.646,4.134,13.77
	c2.756,4.121,6.37,7.172,10.839,9.146c-0.085-2.322,0.054-4.242,0.422-5.76l3.226-13.609c-0.545-1.064-0.816-2.385-0.816-3.971
	c0-1.847,0.467-3.385,1.399-4.623c0.935-1.234,2.073-1.855,3.421-1.855c1.084,0,1.921,0.359,2.504,1.073
	c0.588,0.718,0.882,1.616,0.882,2.703c0,0.673-0.127,1.493-0.376,2.458c-0.252,0.966-0.575,2.084-0.977,3.354
	c-0.4,1.27-0.689,2.283-0.861,3.043c-0.305,1.324-0.056,2.457,0.749,3.402c0.801,0.945,1.865,1.416,3.19,1.416
	c2.32,0,4.225-1.291,5.712-3.875c1.485-2.58,2.228-5.715,2.228-9.406c0-2.843-0.915-5.156-2.75-6.934
	c-1.832-1.781-4.39-2.671-7.666-2.671c-3.668,0-6.637,1.177-8.903,3.532c-2.267,2.355-3.403,5.172-3.403,8.447
	c0,1.953,0.555,3.593,1.661,4.918c0.369,0.434,0.488,0.9,0.359,1.398c-0.044,0.131-0.13,0.455-0.261,0.977
	c-0.129,0.521-0.215,0.859-0.259,1.011c-0.175,0.694-0.587,0.911-1.236,0.65c-1.672-0.694-2.941-1.9-3.81-3.614
	c-0.867-1.714-1.301-3.701-1.301-5.957c0-1.455,0.234-2.908,0.7-4.363C4.273,13.208,5,11.802,5.987,10.444
	c0.988-1.357,2.169-2.556,3.548-3.597c1.378-1.042,3.053-1.876,5.027-2.505c1.976-0.629,4.102-0.944,6.381-0.944
	c3.082,0,5.849,0.684,8.3,2.051c2.454,1.368,4.326,3.137,5.618,5.307c1.29,2.168,1.936,4.492,1.936,6.966
	c0,3.255-0.564,6.185-1.693,8.789s-2.726,4.65-4.785,6.135c-2.062,1.486-4.405,2.231-7.032,2.231c-1.323,0-2.56-0.31-3.71-0.928
	c-1.149-0.619-1.941-1.352-2.377-2.197c-0.977,3.841-1.562,6.13-1.758,6.868c-0.412,1.54-1.257,3.318-2.537,5.338
	C15.225,44.653,17.59,45,19.999,45c4.536,0,8.72-1.121,12.55-3.354c3.828-2.236,6.86-5.269,9.097-9.097
	C43.882,28.719,45,24.535,45,19.999C45,15.465,43.882,11.281,41.648,7.45z"/>
</svg>
