<?xml version="1.0" encoding="utf-8"?>
<!-- Generator: Adobe Illustrator 16.0.0, SVG Export Plug-In . SVG Version: 6.00 Build 0)  -->
<!DOCTYPE svg PUBLIC "-//W3C//DTD SVG 1.1//EN" "http://www.w3.org/Graphics/SVG/1.1/DTD/svg11.dtd">
<svg version="1.1" id="Layer_1" xmlns="http://www.w3.org/2000/svg" xmlns:xlink="http://www.w3.org/1999/xlink" x="0px" y="0px"
	 width="60px" height="60px" viewBox="0 0 60 60" enable-background="new 0 0 60 60" xml:space="preserve">
<path fill="#FFFFFF" d="M55.978,14.941c-2.683-4.596-6.321-8.235-10.917-10.918C40.464,1.341,35.445,0,30.001,0
	c-5.442,0-10.463,1.341-15.059,4.023c-4.597,2.683-8.235,6.321-10.918,10.918C1.341,19.538,0,24.558,0,30.001
	c0,6.066,1.654,11.576,4.961,16.523c3.307,4.947,7.643,8.607,13.008,10.977c-0.104-2.787,0.065-5.09,0.507-6.914l3.868-16.328
	c-0.652-1.276-0.978-2.865-0.978-4.766c0-2.214,0.56-4.062,1.68-5.547c1.12-1.484,2.486-2.227,4.102-2.227
	c1.302,0,2.305,0.43,3.008,1.289c0.703,0.86,1.055,1.94,1.055,3.243c0,0.807-0.15,1.791-0.45,2.95c-0.3,1.158-0.689,2.5-1.172,4.023
	c-0.481,1.523-0.827,2.74-1.035,3.652c-0.364,1.588-0.065,2.949,0.898,4.082s2.24,1.699,3.829,1.699
	c2.786,0,5.071-1.549,6.855-4.648s2.675-6.861,2.675-11.289c0-3.412-1.1-6.186-3.301-8.321c-2.2-2.136-5.268-3.204-9.199-3.204
	c-4.401,0-7.963,1.413-10.684,4.238c-2.721,2.826-4.082,6.205-4.082,10.137c0,2.344,0.664,4.311,1.992,5.898
	c0.443,0.521,0.586,1.081,0.43,1.68c-0.053,0.157-0.157,0.547-0.313,1.172c-0.156,0.625-0.26,1.029-0.312,1.211
	c-0.208,0.834-0.704,1.094-1.484,0.781c-2.005-0.832-3.529-2.279-4.57-4.336c-1.042-2.057-1.562-4.441-1.562-7.148
	c0-1.745,0.28-3.49,0.84-5.234c0.56-1.745,1.432-3.431,2.617-5.059c1.185-1.628,2.604-3.067,4.258-4.317s3.665-2.252,6.035-3.007
	s4.922-1.133,7.656-1.133c3.698,0,7.018,0.82,9.96,2.461c2.944,1.641,5.189,3.763,6.739,6.367s2.324,5.391,2.324,8.359
	c0,3.906-0.677,7.422-2.031,10.547c-1.354,3.125-3.268,5.58-5.742,7.363c-2.475,1.785-5.286,2.676-8.438,2.676
	c-1.588,0-3.072-0.371-4.453-1.113c-1.38-0.742-2.33-1.621-2.852-2.637c-1.172,4.609-1.875,7.357-2.109,8.242
	c-0.495,1.85-1.51,3.984-3.047,6.406c2.786,0.834,5.625,1.25,8.516,1.25c5.442,0,10.463-1.342,15.059-4.025
	c4.597-2.682,8.235-6.32,10.918-10.916c2.683-4.598,4.023-9.617,4.023-15.06C59.999,24.558,58.66,19.538,55.978,14.941z"/>
</svg>
