<?xml version="1.0" encoding="utf-8"?>
<!-- Generator: Adobe Illustrator 16.0.0, SVG Export Plug-In . SVG Version: 6.00 Build 0)  -->
<!DOCTYPE svg PUBLIC "-//W3C//DTD SVG 1.1//EN" "http://www.w3.org/Graphics/SVG/1.1/DTD/svg11.dtd">
<svg version="1.1" id="Layer_1" xmlns="http://www.w3.org/2000/svg" xmlns:xlink="http://www.w3.org/1999/xlink" x="0px" y="0px"
	 width="139.178px" height="51.623px" viewBox="0 0 139.178 51.623" enable-background="new 0 0 139.178 51.623"
	 xml:space="preserve">
<path d="M103.46,34.536h-8.32c-1.148-0.468-2.488-0.922-2.559-1.441c-0.122-0.936,3.652-2.518,3.412-3.413
	c-0.246-0.914-4.383-0.707-4.743-1.575c-0.357-0.875,2.886-3.248,2.416-4.068c-0.473-0.828-4.438,0.289-5.017-0.476
	c-0.574-0.771,1.96-3.787,1.287-4.484c-0.67-0.7-4.232,1.255-4.987,0.637c-0.762-0.618,0.922-4.104,0.086-4.637
	c-0.833-0.529-3.783,2.149-4.683,1.714c-0.894-0.432-0.167-4.187-1.119-4.521c-0.945-0.329-3.112,2.923-4.1,2.7
	c-0.976-0.22-1.257-4.028-2.27-4.14c-0.996-0.111-2.248,3.524-3.274,3.524c-1.03,0-2.282-3.635-3.278-3.524
	c-1.016,0.112-1.295,3.919-2.27,4.14c-0.991,0.223-3.157-3.028-4.099-2.7c-0.955,0.333-0.223,4.087-1.121,4.521
	c-0.898,0.434-3.852-2.244-4.68-1.714c-0.835,0.53,0.845,4.019,0.089,4.637c-0.76,0.618-4.323-1.336-4.994-0.637
	c-0.676,0.698,1.865,3.714,1.286,4.484c-0.577,0.765-4.542-0.353-5.016,0.476c-0.469,0.82,2.781,3.193,2.418,4.068
	c-0.358,0.868-4.497,0.661-4.744,1.571c-0.239,0.899,3.532,2.481,3.413,3.417c-0.07,0.52-1.411,0.974-2.558,1.441h-8.319
	c-0.624,0-1.128,0.505-1.128,1.128c0,0.625,0.505,1.13,1.128,1.13h67.743c0.623,0,1.129-0.505,1.129-1.13
	C104.589,35.041,104.083,34.536,103.46,34.536z M69.59,28.688c3.771,0,6.889,2.534,7.478,5.849H62.108
	C62.7,31.222,65.819,28.688,69.59,28.688z"/>
</svg>
