<?xml version="1.0" encoding="utf-8"?>
<!-- Generator: Adobe Illustrator 16.0.0, SVG Export Plug-In . SVG Version: 6.00 Build 0)  -->
<!DOCTYPE svg PUBLIC "-//W3C//DTD SVG 1.1//EN" "http://www.w3.org/Graphics/SVG/1.1/DTD/svg11.dtd">
<svg version="1.1" id="Layer_1" xmlns="http://www.w3.org/2000/svg" xmlns:xlink="http://www.w3.org/1999/xlink" x="0px" y="0px"
	 width="100px" height="100px" viewBox="0 0 100 100" enable-background="new 0 0 100 100" xml:space="preserve">
<g>
	
		<rect x="6.552" y="81.932" fill="none" stroke="#ADA074" stroke-width="2" stroke-linecap="round" stroke-miterlimit="10" width="21.724" height="13.965"/>
	
		<line fill="none" stroke="#ADA074" stroke-width="2" stroke-linecap="round" stroke-miterlimit="10" x1="17.414" y1="78.828" x2="17.414" y2="67.965"/>
	
		<rect x="12.759" y="55.553" fill="none" stroke="#ADA074" stroke-width="2" stroke-linecap="round" stroke-miterlimit="10" width="9.311" height="12.412"/>
	
		<line fill="none" stroke="#ADA074" stroke-width="2" stroke-linecap="round" stroke-miterlimit="10" x1="14.311" y1="78.828" x2="20.518" y2="78.828"/>
	
		<rect x="37.586" y="9.001" fill="none" stroke="#ADA074" stroke-width="2" stroke-linecap="round" stroke-miterlimit="10" width="55.862" height="86.895"/>
	
		<line fill="none" stroke="#ADA074" stroke-width="2" stroke-linecap="round" stroke-miterlimit="10" x1="74.827" y1="9.001" x2="74.827" y2="95.896"/>
	
		<rect x="74.827" y="26.07" fill="none" stroke="#ADA074" stroke-width="2" stroke-linecap="round" stroke-miterlimit="10" width="18.621" height="17.068"/>
	
		<rect x="74.827" y="60.207" fill="none" stroke="#ADA074" stroke-width="2" stroke-linecap="round" stroke-miterlimit="10" width="18.621" height="17.068"/>
	
		<line fill="none" stroke="#ADA074" stroke-width="2" stroke-linecap="round" stroke-miterlimit="10" x1="74.827" y1="26.07" x2="37.586" y2="26.07"/>
	
		<line fill="none" stroke="#ADA074" stroke-width="2" stroke-linecap="round" stroke-miterlimit="10" x1="40.689" y1="95.896" x2="40.689" y2="99"/>
	
		<line fill="none" stroke="#ADA074" stroke-width="2" stroke-linecap="round" stroke-miterlimit="10" x1="26.725" y1="95.896" x2="26.725" y2="99"/>
	
		<line fill="none" stroke="#ADA074" stroke-width="2" stroke-linecap="round" stroke-miterlimit="10" x1="8.104" y1="95.896" x2="8.104" y2="99"/>
	
		<line fill="none" stroke="#ADA074" stroke-width="2" stroke-linecap="round" stroke-miterlimit="10" x1="91.896" y1="95.896" x2="91.896" y2="99"/>
	
		<line fill="none" stroke="#ADA074" stroke-width="2" stroke-linecap="round" stroke-miterlimit="10" x1="37.586" y1="32.277" x2="74.827" y2="32.277"/>
	
		<line fill="none" stroke="#ADA074" stroke-width="2" stroke-linecap="round" stroke-miterlimit="10" x1="51.552" y1="32.277" x2="51.552" y2="36.932"/>
	
		<line fill="none" stroke="#ADA074" stroke-width="2" stroke-linecap="round" stroke-miterlimit="10" x1="51.552" y1="36.932" x2="45.345" y2="43.138"/>
	
		<line fill="none" stroke="#ADA074" stroke-width="2" stroke-linecap="round" stroke-miterlimit="10" x1="51.552" y1="36.932" x2="57.759" y2="43.138"/>
	
		<line fill="none" stroke="#ADA074" stroke-width="2" stroke-linecap="round" stroke-miterlimit="10" x1="45.345" y1="43.138" x2="57.759" y2="43.138"/>
	<path fill="none" stroke="#ADA074" stroke-width="2" stroke-linecap="round" stroke-miterlimit="10" d="M68.621,95.896H57.759
		c-2.562,0-4.655-2.094-4.655-4.654s2.094-4.656,4.655-4.656h6.207"/>
	<path fill="none" stroke="#ADA074" stroke-width="2" stroke-linecap="round" stroke-miterlimit="10" d="M53.104,81.932h10.862
		c2.561,0,4.655,2.096,4.655,4.654c0,2.561-2.095,4.656-4.655,4.656h-6.207"/>
</g>
</svg>
