<svg xmlns="http://www.w3.org/2000/svg" width="100" height="100" viewBox="0 0 100 100"><g stroke="#444" stroke-width="2" stroke-linecap="round" stroke-miterlimit="10" fill="none"><path d="M6.552 81.932h21.724v13.965h-21.724v-13.965zm10.862-3.104v-10.863M12.759 55.553h9.311v12.412h-9.311v-12.412zm1.552 23.275h6.207M37.586 9.001h55.862v86.896h-55.862v-86.896zm37.241 0v86.896M74.827 26.07h18.621v17.068h-18.621v-17.068zm0 34.137h18.621v17.068h-18.621v-17.068zm0-34.137h-37.241m3.103 69.826v3.104m-13.964-3.104v3.104m-18.621-3.104v3.104m83.792-3.104v3.104m-54.31-66.723h37.241m-23.275 0v4.655m0 0l-6.207 6.206m6.207-6.206l6.207 6.206m-12.414 0h12.414m10.862 52.758h-10.862c-2.562 0-4.655-2.096-4.655-4.654 0-2.561 2.096-4.656 4.655-4.656h6.207m-10.862-4.654h10.862c2.562 0 4.655 2.096 4.655 4.654 0 2.561-2.096 4.656-4.655 4.656h-6.207"/></g></svg>